<svg width="26" height="26" viewBox="0 0 26 26" fill="none" xmlns="http://www.w3.org/2000/svg">
<path d="M13 2.16663C7.01675 2.16663 2.16666 7.01671 2.16666 13C2.16666 18.4318 6.16362 22.9293 11.3772 23.7125C11.9064 23.7921 12.4486 22.2083 13 22.2083C13.4978 22.2083 13.988 23.7997 14.4685 23.7347C19.7573 23.0181 23.8333 18.4854 23.8333 13C23.8333 7.01671 18.9832 2.16663 13 2.16663Z" fill="url(#paint0_linear_143_235)"/>
<path opacity="0.05" d="M15.008 11.4665C15.008 10.6952 15.1732 9.77595 15.9597 9.77595H18.2796L18.2791 6.73341L18.252 6.27191L17.7938 6.21016C17.4644 6.16575 16.7792 6.07312 15.5155 6.07312C12.499 6.07312 10.8377 7.86874 10.8377 11.129V12.4821H8.1575V16.4135H10.8377V23.6166C11.5364 23.758 12.2595 23.8333 13 23.8333C13.6868 23.8333 14.3563 23.7623 15.008 23.6399V16.413H17.7342L18.3419 12.4816H15.008V11.4665Z" fill="black"/>
<path opacity="0.05" d="M14.7371 11.4665C14.7371 10.7337 14.8958 9.50516 15.9597 9.50516H18.0088V6.74916L17.9947 6.51083L17.7602 6.47887C17.4368 6.43499 16.7646 6.34399 15.516 6.34399C12.6327 6.34399 11.109 7.99879 11.109 11.1291V12.753H8.42833V16.1427H11.1085V23.6578C11.7238 23.7662 12.3532 23.8333 13 23.8333C13.5926 23.8333 14.17 23.7727 14.7371 23.6811V16.1422H17.5018L18.0256 12.7525H14.7366V11.4665H14.7371Z" fill="black"/>
<path d="M14.4663 15.8714H17.27L17.7103 13.0233H14.4663V11.4666C14.4663 10.2836 14.853 9.23437 15.9597 9.23437H17.738V6.7492C17.4254 6.70695 16.7646 6.61487 15.516 6.61487C12.9085 6.61487 11.3799 7.99178 11.3799 11.1291V13.0239H8.69917V15.872H11.3793V23.7126C11.9102 23.7917 12.448 23.8334 13 23.8334C13.4989 23.8334 13.9858 23.7998 14.4663 23.7348V15.8714Z" fill="white"/>
<defs>
<linearGradient id="paint0_linear_143_235" x1="5.41287" y1="5.41283" x2="21.9998" y2="21.9997" gradientUnits="userSpaceOnUse">
<stop stop-color="#2AA4F4"/>
<stop offset="1" stop-color="#007AD9"/>
</linearGradient>
</defs>
</svg>
